# xmcd
#
# Track frame offsets: 
#        150
#        3571
#        22168
#        43694
#        65526
#        116308
#        145562
#        167734
#        183200
#        200868
#        224359
#        240647
#        264883
#        289770
#
# Disc length: 4171 seconds
#
# Revision: 0
# Processed by: cddbd v1.5.2PL0 Copyright (c) Steve Scherf et al.
# Submitted via: ExactAudioCopy v1.0b1
#
DISCID=c910490e
DTITLE=Three Yardbirds  - In The Hall - Disc 1
DYEAR=1900
DGENRE=
TTITLE0=Introduction
TTITLE1=Everyboday Ought To Make A Change
TTITLE2=Lay Down Sally
TTITLE3=Wonderful Tonight
TTITLE4=Ramblin' On My Mind
TTITLE5=Rita Mae
TTITLE6=Cocaine
TTITLE7=Man Smart Woman Smarter
TTITLE8=Hound Dog
TTITLE9=Best That I Can
TTITLE10=Road Runner
TTITLE11=Slowdown Sundown
TTITLE12=Take Me To The River
TTITLE13=Gimme Some Lovin'
EXTD=
EXTT0=
EXTT1=
EXTT2=
EXTT3=
EXTT4=
EXTT5=
EXTT6=
EXTT7=
EXTT8=
EXTT9=
EXTT10=
EXTT11=
EXTT12=
EXTT13=
PLAYORDER=
